<svg version="1.1" id="Layer_1" xmlns="http://www.w3.org/2000/svg" xmlns:xlink="http://www.w3.org/1999/xlink" x="0px" y="0px" width="32px" height="32px" viewBox="0 0 32 32" enable-background="new 0 0 32 32" xml:space="preserve">
  <g id="main">
    <g id="icon">
      <path d="M15.9,3.546L15.03,3.679L14.18,3.896L13.37,4.192L12.61,4.562L11.88,5.003L11.2,5.51L10.58,6.078L10.01,6.702L9.503,7.38L9.062,8.105L8.692,8.875L8.396,9.683L8.179,10.53L8.046,11.4L8,12.3L8.046,13.2L8.179,14.07L8.396,14.92L8.692,15.73L9.062,16.49L9.503,17.22L10.01,17.9L10.58,18.52L11.2,19.09L11.88,19.6L12.61,20.04L13.37,20.41L14.18,20.7L15.03,20.92L15.9,21.05L16.8,21.1L17.11,21.08L17.07,20.95L17.04,20.66L17.07,20.38L17.15,20.1L17.29,19.84L17.48,19.6L19.6,17.48L19.83,17.29L20.09,17.16L20.37,17.07L20.66,17.04L20.96,17.07L21.24,17.16L21.5,17.29L21.73,17.48L22.89,18.64L23.02,18.52L23.59,17.9L24.1,17.22L24.54,16.49L24.91,15.73L25.2,14.92L25.42,14.07L25.55,13.2L25.6,12.3L25.55,11.4L25.42,10.53L25.2,9.683L24.91,8.875L24.54,8.105L24.1,7.38L23.59,6.702L23.02,6.078L22.4,5.51L21.72,5.003L20.99,4.562L20.23,4.192L19.42,3.896L18.57,3.679L17.7,3.546L16.8,3.5zz" fill="#FFFFFF"/>
      <path d="M16.07,2.719L14.94,2.881L13.86,3.162L12.83,3.557L11.85,4.061L10.94,4.67L10.1,5.378L9.345,6.181L8.675,7.075L8.138,7.991L7.702,8.966L7.371,9.996L7.146,11.08L7.068,12.16L7.087,13.28L7.194,14.07L7.364,14.84L7.594,15.59L7.881,16.31L8.223,17.01L8.617,17.67L9.062,18.3L9.553,18.89L10.09,19.44L10.67,19.95L11.29,20.41L11.94,20.82L12.64,21.18L13.36,21.49L14.11,21.74L14.89,21.93L15.84,22.08L16.8,22.13L17.76,22.09L17.84,22.08L17.48,21.72L17.29,21.49L17.15,21.23L17.07,20.95L17.04,20.66L17.07,20.38L17.14,20.14L15.93,20.12L15.28,20.01L14.65,19.85L14.03,19.64L13.44,19.38L12.92,19.1L14.27,18.28L15.63,17.49L15.83,17.71L16.48,18.41L17.52,19.45L17.58,19.51L18.78,18.31L17.32,16.85L17.13,16.63L18.72,15.72L20.3,14.81L20.42,15.16L20.7,16.11L20.96,17.07L20.96,17.07L21.24,17.16L21.5,17.29L21.73,17.48L23.61,19.37L23.7,19.29L24.27,18.68L24.77,18.02L25.22,17.32L25.61,16.58L25.93,15.81L26.18,15.01L26.37,14.19L26.49,13.33L26.52,12.15L26.43,11L26.23,10.02L25.96,9.106L25.6,8.236L25.16,7.409L24.59,6.555L23.94,5.776L23.22,5.073L22.43,4.453L21.58,3.919L20.67,3.475L19.71,3.126L18.71,2.876L17.36,2.715zM17.87,4.681L18.96,4.929L19.99,5.314L20.93,5.836L19.52,6.661L18.11,7.47L17.74,7.05L16.75,6.004L15.76,5.036L15.43,4.702L15.8,4.649L16.84,4.616zM14.01,5.658L15.18,6.792L16.29,7.941L16.58,8.279L16.6,8.335L16.57,8.364L14.92,9.309L13.35,10.22L13.29,10.08L12.98,9.113L12.61,7.786L12.33,6.597L12.25,6.037L12.9,5.623L13.56,5.283zM22.48,7.127L23.09,7.87L23.62,8.734L24.05,9.664L24.34,10.6L24.33,10.67L24.16,10.79L22.87,11.54L21.32,12.44L21.24,12.43L21.12,12.17L20.75,11.37L20.34,10.58L19.88,9.81L19.37,9.061L19.14,8.746L19.7,8.422L21.26,7.526L22.28,6.954zM11.03,8.239L11.38,9.577L11.68,10.54L11.84,11.08L9.024,12.68L9.019,12.13L9.086,11.29L9.284,10.31L9.603,9.372L10.04,8.477L10.61,7.621L10.81,7.352zM17.73,9.694L18.49,10.82L19.13,11.96L19.56,12.87L19.73,13.35L16.13,15.42L15.3,14.28L14.79,13.46L14.26,12.45L13.96,11.76L17.66,9.611zM24.54,12.81L24.4,13.96L24.1,15.07L23.72,15.9L23.29,16.68L22.77,17.37L22.51,16.42L21.83,14.04L21.81,13.94L24.54,12.36zM12.58,12.87L12.95,13.66L13.37,14.43L14.35,15.91L14.62,16.3L13.07,17.19L11.53,18.08L11.27,17.82L10.73,17.22L10.25,16.54L9.827,15.79L9.487,15.01L9.332,14.55L9.345,14.39L12.43,12.61zz" fill="#cfcfcf"/>
      <path d="M11,0.1119L10.1,0.5531L9.239,1.05L8.424,1.602L7.654,2.207L6.932,2.864L6.259,3.571L5.636,4.327L5.066,5.13L4.609,5.866L4.198,6.656L3.735,7.704L3.367,8.782L3.09,9.902L2.9,11.08L2.835,12.3L2.854,13.56L2.964,14.55L3.141,15.52L3.384,16.47L3.693,17.39L4.067,18.28L4.504,19.15L5.006,19.98L5.57,20.78L6.618,22.01L7.788,23.1L9.065,24.04L10.44,24.82L11.89,25.44L13.41,25.89L14.99,26.17L16.61,26.26L18.19,26.17L19.74,25.91L19.89,25.86L20.76,25L19.52,23.76L19.36,23.81L17.99,24.05L16.61,24.12L15.22,24.03L13.85,23.78L12.52,23.36L11.23,22.78L10.07,22.08L9.011,21.26L8.056,20.33L7.216,19.3L6.5,18.18L5.915,16.99L5.471,15.73L5.177,14.43L5.061,13.53L5.035,12.51L5.061,11.5L5.177,10.6L5.406,9.525L5.738,8.483L6.169,7.476L6.694,6.514L7.307,5.602L8.006,4.75L8.784,3.965L9.638,3.253L10.61,2.599L11.66,2.033L12.09,1.804L11.34,0.04004L11.32,0L11.25,0zM15.49,27.39L15.49,27.95L14.87,27.98L13.36,28.08L11.89,28.29L10.8,28.52L9.818,28.78L9.562,28.86L9.562,29.43L9.562,30L16.67,30L17.21,30L17.15,29.9L17.07,29.62L17.04,29.34L17.07,29.05L17.15,28.77L17.29,28.51L17.48,28.28L18.03,27.73L18.03,27.39L18.03,26.82L16.76,26.82L15.49,26.82zz" fill="#cfcfcf"/>
    </g>
    <g id="overlay">
      <path d="M31.91,29.789l-2.121,2.121c-0.195,0.195,-0.512,0.195,-0.707,0L25,27.828l-3.982,3.982c-0.195,0.195,-0.512,0.195,-0.707,0l-2.121,-2.121c-0.195,-0.195,-0.195,-0.512,0,-0.707L22.172,25l-3.982,-3.982c-0.195,-0.195,-0.195,-0.512,0,-0.707l2.121,-2.121c0.195,-0.195,0.512,-0.195,0.707,0L25,22.172l3.982,-3.982c0.195,-0.195,0.512,-0.195,0.707,0l2.121,2.121c0.195,0.195,0.195,0.512,0,0.707L27.828,25l4.082,4.082C32.106,29.277,32.106,29.594,31.91,29.789z" fill-rule="evenodd" fill="#CD4C32"/>
    </g>
  </g>
</svg>
