<svg version="1.1" id="Layer_1" xmlns="http://www.w3.org/2000/svg" xmlns:xlink="http://www.w3.org/1999/xlink" x="0px" y="0px" width="16px" height="16px" viewBox="0 0 16 16" enable-background="new 0 0 16 16" xml:space="preserve">
  <g id="icon">
    <circle cx="8.943" cy="6.569" r="4.689" fill="#FFFFFF"/>
    <path d="M9.959,1.548c1.452,0.283,2.69,1.152,3.439,2.415c0.341,0.573,0.563,1.202,0.678,1.911c0.044,0.267,0.061,0.958,0.031,1.246c-0.123,1.228,-0.64,2.328,-1.49,3.176c-0.739,0.738,-1.638,1.213,-2.683,1.422c-0.617,0.122,-1.352,0.117,-2.007,-0.016c-2.257,-0.458,-3.946,-2.331,-4.16,-4.613c-0.026,-0.295,-0.012,-0.894,0.031,-1.172c0.122,-0.784,0.397,-1.503,0.815,-2.132c0.886,-1.332,2.318,-2.176,3.938,-2.321C8.937,1.429,9.539,1.465,9.959,1.548zM8.412,2.493c-0.104,0.013,-0.194,0.026,-0.201,0.028c-0.005,0.003,0.074,0.082,0.179,0.178c0.249,0.227,0.802,0.79,1.054,1.073l0.199,0.224l0.751,-0.431c0.412,-0.235,0.749,-0.435,0.751,-0.44c0,-0.015,-0.339,-0.202,-0.502,-0.278c-0.337,-0.155,-0.752,-0.28,-1.128,-0.337C9.269,2.471,8.657,2.461,8.412,2.493zM7.218,2.83c-0.051,0.002,-0.654,0.347,-0.698,0.402c-0.048,0.058,0.377,1.709,0.555,2.157l0.028,0.072l0.84,-0.486c0.463,-0.267,0.856,-0.494,0.876,-0.504c0.036,-0.02,0.031,-0.026,-0.147,-0.226c-0.237,-0.267,-0.93,-0.96,-1.215,-1.217C7.335,2.921,7.228,2.83,7.218,2.83zM11.862,3.721c-0.01,0,-0.255,0.137,-0.545,0.305c-0.29,0.168,-0.662,0.382,-0.826,0.477l-0.3,0.173l0.12,0.168c0.377,0.524,0.691,1.082,0.932,1.654c0.069,0.16,0.072,0.166,0.105,0.147c0.02,-0.012,0.392,-0.227,0.828,-0.479c0.777,-0.446,0.795,-0.458,0.785,-0.5c-0.156,-0.657,-0.545,-1.381,-0.991,-1.852C11.922,3.762,11.872,3.719,11.862,3.721zM5.868,4.405l-0.117,-0.472l-0.109,0.143c-0.444,0.596,-0.711,1.24,-0.81,1.957c-0.031,0.226,-0.053,0.723,-0.033,0.736c0.012,0.007,1.467,-0.818,1.5,-0.851c0.005,-0.003,-0.033,-0.132,-0.082,-0.285c-0.051,-0.151,-0.122,-0.384,-0.161,-0.515C6.018,4.987,5.934,4.667,5.868,4.405zM9.399,5.136c-0.021,-0.002,-1.966,1.131,-1.972,1.147c-0.008,0.025,0.296,0.647,0.444,0.905c0.066,0.115,0.186,0.309,0.27,0.433c0.153,0.229,0.431,0.607,0.446,0.607c0.008,0,1.9,-1.087,1.918,-1.101c0.016,-0.015,-0.156,-0.413,-0.323,-0.742c-0.196,-0.39,-0.461,-0.821,-0.742,-1.205C9.423,5.156,9.404,5.136,9.399,5.136zM13.069,6.602c-0.01,0,-1.447,0.831,-1.457,0.841c-0.003,0.005,0,0.03,0.01,0.056c0.059,0.155,0.252,0.828,0.362,1.263c0.069,0.278,0.133,0.507,0.138,0.507c0.018,0,0.15,-0.171,0.278,-0.364c0.13,-0.198,0.344,-0.624,0.431,-0.863c0.137,-0.37,0.219,-0.793,0.234,-1.2C13.071,6.709,13.072,6.6,13.069,6.602zM6.617,6.733c-0.007,0.002,-1.533,0.884,-1.646,0.952c-0.03,0.018,-0.013,0.087,0.076,0.329c0.209,0.56,0.556,1.108,0.95,1.496l0.138,0.137l0.821,-0.472c0.451,-0.26,0.823,-0.474,0.826,-0.476c0.003,-0.003,-0.063,-0.097,-0.147,-0.209c-0.374,-0.5,-0.698,-1.054,-0.945,-1.615C6.655,6.796,6.622,6.732,6.617,6.733zM10.87,8.095l-0.063,-0.191l-0.843,0.486l-0.845,0.486l0.102,0.119c0.138,0.156,1.067,1.087,1.268,1.268l0.16,0.145l0.202,-0.105c0.239,-0.125,0.487,-0.283,0.5,-0.318c0.018,-0.046,-0.17,-0.835,-0.329,-1.383C10.973,8.427,10.904,8.202,10.87,8.095zM8.428,9.453l-0.107,-0.117l-0.728,0.42c-0.423,0.244,-0.724,0.426,-0.719,0.436c0.007,0.01,0.132,0.076,0.278,0.147c0.418,0.204,0.856,0.334,1.325,0.397c0.319,0.041,1.18,0.008,1.166,-0.044c-0.002,-0.01,-0.145,-0.15,-0.318,-0.314c-0.171,-0.163,-0.42,-0.412,-0.551,-0.551S8.487,9.519,8.428,9.453z" fill="#217346"/>
    <path d="M6.016,0l0.018,0.036c0.028,0.053,0.402,0.928,0.402,0.94c0,0.005,-0.105,0.059,-0.234,0.122c-0.384,0.183,-0.749,0.405,-1.075,0.65C3.863,2.703,3,4.122,2.75,5.662c-0.064,0.398,-0.076,0.545,-0.076,1.021s0.012,0.622,0.076,1.021c0.308,1.885,1.515,3.551,3.225,4.45c1.791,0.942,3.935,0.955,5.737,0.036c0.244,-0.123,0.581,-0.329,0.774,-0.468c0.063,-0.046,0.119,-0.077,0.125,-0.071c0.005,0.007,0.156,0.207,0.336,0.446l0.326,0.435l-0.04,0.031c-0.079,0.063,-0.603,0.405,-0.738,0.482c-0.076,0.043,-0.265,0.14,-0.42,0.216c-1.003,0.494,-2.102,0.747,-3.237,0.747c-2.32,0,-4.484,-1.075,-5.88,-2.919c-0.846,-1.116,-1.338,-2.428,-1.447,-3.847c-0.025,-0.319,-0.01,-1.032,0.025,-1.325c0.105,-0.858,0.328,-1.618,0.691,-2.356c0.175,-0.356,0.255,-0.496,0.463,-0.813C3.463,1.574,4.543,0.66,5.852,0.074L6.016,0zM8.247,14.304h0.675h0.675v0.305v0.305h0.087c0.178,0,0.719,0.033,0.95,0.058c0.538,0.058,1.19,0.183,1.707,0.326l0.309,0.086l0.005,0.308l0.003,0.309H8.873H5.086v-0.305v-0.303l0.137,-0.043c0.24,-0.074,0.785,-0.204,1.106,-0.262c0.547,-0.099,1.004,-0.148,1.585,-0.168l0.333,-0.012v-0.301V14.304z" fill="#797979"/>
  </g>
</svg>
