<svg version="1.1" id="Layer_1" xmlns="http://www.w3.org/2000/svg" xmlns:xlink="http://www.w3.org/1999/xlink" x="0px" y="0px" width="16px" height="16px" viewBox="0 0 16 16" enable-background="new 0 0 16 16" xml:space="preserve">
  <g id="main">
    <g id="icon">
      <path d="M6.092,1.851L5.267,2.107L4.52,2.513L3.87,3.05L3.333,3.7L2.928,4.447L2.671,5.272L2.582,6.158L2.671,7.044L2.928,7.869L3.333,8.616L3.87,9.266L4.52,9.803L5.267,10.21L6,10.44L6,10.3L6.026,10.04L6.102,9.794L6.381,9.381L6.794,9.102L7.038,9.026L7.3,9L9,9L9,7.3L9.026,7.038L9.102,6.794L9.381,6.381L9.794,6.102L10.04,6.026L10.3,6L11.36,6L11.28,5.272L11.03,4.447L10.62,3.7L10.09,3.05L9.436,2.513L8.689,2.107L7.864,1.851L6.978,1.762zz" fill="#FFFFFF"/>
      <path d="M6.611,1.372L6.05,1.453L5.51,1.594L4.994,1.791L4.507,2.043L4.052,2.347L3.632,2.701L3.253,3.102L2.918,3.548L2.649,4.006L2.432,4.493L2.266,5.008L2.154,5.547L2.125,6.646L2.263,7.428L2.522,8.164L2.889,8.841L3.357,9.449L3.914,9.977L4.551,10.41L5.258,10.75L6,10.96L6,10.3L6.026,10.04L6.051,9.959L5.903,9.928L5.3,9.692L5.039,9.555L5.713,9.146L6.395,8.752L6.495,8.862L6.748,9.133L6.794,9.102L7.038,9.026L7.3,9L7.808,9L7.239,8.431L7.143,8.32L7.935,7.865L8.725,7.41L8.784,7.589L8.927,8.062L9,8.368L9,7.3L9.026,7.038L9.102,6.794L9.381,6.381L9.794,6.102L10.04,6.026L10.3,6L11.82,6L11.79,5.507L11.55,4.563L11.15,3.715L10.87,3.289L10.55,2.899L10.18,2.548L9.789,2.238L9.363,1.972L8.909,1.75L8.43,1.576L7.93,1.451L7.259,1.371zM7.515,2.353L8.057,2.477L8.572,2.669L9.043,2.93L8.339,3.342L7.635,3.746L7.448,3.536L6.46,2.53L6.292,2.363L6.48,2.337L6.997,2.32zM5.585,2.841L6.724,3.982L6.868,4.15L6.861,4.193L6.04,4.665L5.253,5.12L5.227,5.052L4.888,3.904L4.707,3.03L5.361,2.653zM9.817,3.575L10.12,3.946L10.38,4.377L10.6,4.842L10.75,5.311L10.65,5.404L10.01,5.78L9.234,6.229L9.197,6.224L9.135,6.092L8.746,5.299L8.261,4.541L8.148,4.384L8.429,4.222L9.204,3.774L9.715,3.488zM4.095,4.13L4.271,4.798L4.422,5.281L4.499,5.548L3.093,6.346L3.124,5.656L3.223,5.164L3.382,4.696L3.601,4.249L3.883,3.821L3.985,3.687zM7.445,4.856L7.823,5.419L8.141,5.986L8.443,6.682L6.645,7.715L6.227,7.146L5.974,6.74L5.557,5.891L7.406,4.815zM4.868,6.445L5.267,7.223L5.754,7.959L5.891,8.155L5.116,8.601L4.346,9.044L4.216,8.916L3.706,8.275L3.325,7.513L3.254,7.204L4.797,6.312zz" fill="#cfcfcf"/>
      <path d="M4.08,0.06992L3.201,0.5385L2.409,1.116L1.712,1.798L1.116,2.576L0.682,3.338L0.2672,4.401L0.03398,5.547L0.01094,6.789L0.1545,7.767L0.4305,8.699L0.8357,9.579L1.368,10.4L1.891,11.01L2.476,11.55L3.114,12.02L3.8,12.41L4.526,12.72L5.286,12.95L6.065,13.08L6.026,12.96L6,12.7L6,11.98L5.506,11.89L4.839,11.68L4.195,11.39L3.617,11.05L3.087,10.63L2.61,10.17L2.191,9.654L1.833,9.096L1.541,8.501L1.319,7.874L1.172,7.222L1.101,6.265L1.172,5.308L1.287,4.773L1.453,4.252L1.668,3.749L1.93,3.268L2.237,2.813L2.586,2.387L2.975,1.994L3.401,1.639L3.885,1.312L4.409,1.029L4.628,0.915L4.251,0.03398L4.234,0zM6.325,13.7L6.325,13.98L6.013,13.99L5.258,14.04L4.527,14.15L3.49,14.39L3.362,14.43L3.362,14.72L3.362,15L6.912,15L9,15L9,14.1L8.564,14.04L7.97,14L7.3,14L7.038,13.97L6.794,13.9L6.381,13.62L6.325,13.54zz" fill="#cfcfcf"/>
    </g>
    <g id="overlay">
      <path d="M15.7,10h-2.7V7.3c0,-0.166,-0.134,-0.3,-0.3,-0.3h-2.4c-0.166,0,-0.3,0.134,-0.3,0.3v2.7H7.3c-0.166,0,-0.3,0.134,-0.3,0.3v2.4c0,0.166,0.134,0.3,0.3,0.3h2.7v2.7c0,0.166,0.134,0.3,0.3,0.3h2.4c0.166,0,0.3,-0.134,0.3,-0.3v-2.7h2.7c0.166,0,0.3,-0.134,0.3,-0.3v-2.4C16,10.134,15.866,10,15.7,10z" fill="#4EA17E"/>
    </g>
  </g>
</svg>